<svg id="Layer_1" data-name="Layer 1" xmlns="http://www.w3.org/2000/svg" viewBox="0 0 1000 239"><defs><style>.cls-1{fill:#020202;}.cls-2{fill:#f8d103;}</style></defs><path class="cls-1" d="M583.32,128.57c-11.43,0-22.87.13-34.3,0a34.07,34.07,0,0,1-26.11-12.14A27.88,27.88,0,0,1,516,99.16c-.11-1.7-.07-1.73,1.63-1.74,7.44,0,14.87,0,22.31,0,1.17,0,1.68.31,1.84,1.52.58,4.27,4.75,7.6,9.7,7.6q30.94,0,61.9,0a11.48,11.48,0,0,0,5.33-1.21c3.15-1.64,5-4.23,4.85-7.9s-2.28-6.17-5.52-7.74a11.53,11.53,0,0,0-5.13-.93q-31.9,0-63.82,0A33.16,33.16,0,0,1,525.9,80c-8.71-8-11.49-17.84-8.73-29.18,1.52-6.28,5.49-11.08,10.5-15a35.49,35.49,0,0,1,22.25-7.57c7.27-.07,14.55,0,21.83,0q20.5,0,41,0a34.07,34.07,0,0,1,16.44,3.64C637.94,36.47,644,43.3,646,53.31c.26,1.4.22,2.86.36,4.29.1,1-.31,1.41-1.36,1.38-2.15-.06-4.31,0-6.47,0-5.68,0-11.36,0-17,0-1.13,0-1.58-.24-1.81-1.49a7.74,7.74,0,0,0-8.09-6.66q-28.78,0-57.58,0c-5.81,0-9.7,5.35-7.56,10.46,1.4,3.37,4.21,4.93,7.78,5,6.48.06,13,0,19.43,0,14.64,0,29.27-.28,43.9,0,11.58.2,20.76,5.08,27.76,14.15a24.88,24.88,0,0,1,5.24,14.4c.71,16.43-9.8,29.7-26,33a44.2,44.2,0,0,1-8.8.86H583.32Z"/><path class="cls-1" d="M659.59,128.58c2.53-4,4.77-7.56,7-11.11l42.6-67.09q6.67-10.5,13.31-21a2.15,2.15,0,0,1,2.08-1.21q12.36.06,24.7,0a2.18,2.18,0,0,1,2.05,1.27c4.26,6.75,8.58,13.46,12.86,20.2L794.61,97.5q9.55,15,19.13,30.1a5.66,5.66,0,0,1,.3.77,3.52,3.52,0,0,1-1.83.21c-8.39,0-16.79-.06-25.18,0a3.61,3.61,0,0,1-3.58-2c-3.71-6-7.55-12-11.27-18.08a3.7,3.7,0,0,0-3.64-2q-31.53.12-63.07,0a3.84,3.84,0,0,0-3.79,2.1c-3.73,6-7.61,12-11.35,18a3.48,3.48,0,0,1-3.39,1.95c-8.31-.1-16.63,0-24.94,0Zm97.48-43.27c-1.2-2.53-18.66-30.12-20.19-31.93-3.39,5.34-6.78,10.63-10.13,15.94s-6.79,10.42-10,16Z"/><path class="cls-1" d="M507.15,128.58h-8.24c-6.39,0-12.79-.06-19.18,0a3.28,3.28,0,0,1-3.25-1.81c-3.9-6.31-7.92-12.55-11.81-18.87a2.51,2.51,0,0,0-2.48-1.37q-32.25,0-64.51,0c-1.61,0-2.25.8-2.94,1.9L383.59,126a16.3,16.3,0,0,0-1,1.6,1.63,1.63,0,0,1-1.7,1c-9.27,0-18.54,0-27.75,0-.42-.74.08-1.12.37-1.58l48-75.58C406,44.28,410.51,37.16,415,30a3.48,3.48,0,0,1,3.44-1.86c7.67.09,15.35.07,23,0a3.06,3.06,0,0,1,3.06,1.63q24.64,38.94,49.39,77.81,6.28,9.89,12.55,19.81C506.61,127.65,506.76,127.92,507.15,128.58ZM409.49,85.25h40.68c-6.81-10.81-13.46-21.33-20.26-32.1C423.07,63.91,416.36,74.44,409.49,85.25Z"/><path class="cls-1" d="M824.8,128.58a4.79,4.79,0,0,1-.3-2.51q0-47.74,0-95.48c0-.48,0-1,0-1.44,0-.71.31-1,1-1h1.2c7.67,0,15.34,0,23,0,2.47,0,2.17,0,2.17,2.25v72.21c0,.4,0,.8,0,1.2,0,2.6-.3,2.29,2.29,2.29h86.1c3.34,0,2.87-.43,2.88,3,0,5.92,0,11.83,0,17.75,0,1.71,0,1.71-1.68,1.75H824.8Z"/><path class="cls-2" d="M318.56,109.32H107.61a6.1,6.1,0,0,1,1.08-2.52c1.94-3.4,3.91-6.78,5.78-10.21a2.25,2.25,0,0,1,2.44-1.44,13.83,13.83,0,0,0,1.44,0H307.59c.64,0,1.28,0,1.91,0a1.38,1.38,0,0,1,1.36.78C313.35,100.3,315.86,104.64,318.56,109.32Z"/><path class="cls-2" d="M108.66,129.24H316.83c.38.73-.1,1.17-.36,1.62-2.18,3.81-4.42,7.59-6.57,11.42a2,2,0,0,1-2.08,1.2c-2.07,0-4.15,0-6.23,0H124.33c-2.16,0-4.31,0-6.47,0-.74,0-1.39,0-1.83-.81-2.39-4.24-4.82-8.46-7.24-12.69A3.9,3.9,0,0,1,108.66,129.24Z"/><path class="cls-2" d="M156.41,112.2q49.54,0,99.07,0a3.82,3.82,0,0,1,3.93,2.22c2.14,3.94,1.95,3.74-.05,7.89-1.59,3.32-3.69,4.1-7.23,4.1q-96.19-.2-192.38-.09a11.77,11.77,0,0,0-1.68,0,2.75,2.75,0,0,1-3.22-1.75,48.24,48.24,0,0,0-2.88-5,2,2,0,0,1-.07-2.44c1-1.55,1.58-3.55,2.93-4.59s3.4-.32,5.15-.32Q108.19,112.19,156.41,112.2Z"/><path class="cls-2" d="M246.26,92.55H66.68c-.38-.73.13-1.14.39-1.6,2-3.46,4.05-6.88,5.93-10.41a3.47,3.47,0,0,1,3.58-2.06q29.86.09,59.73,0,49.53-.06,99.06-.21c2.28,0,3.63.54,4.69,2.67,1.75,3.5,3.87,6.8,5.84,10.18A1.86,1.86,0,0,1,246.26,92.55Z"/><path class="cls-2" d="M245,146.49c-.59,1.13-1.11,2.18-1.69,3.2-1.69,3-3.48,5.92-5.08,9a2.68,2.68,0,0,1-3,1.71,5.77,5.77,0,0,0-.72,0H77.17c-.48,0-1,0-1.44,0a1.74,1.74,0,0,1-1.89-1.08c-2-3.81-4.14-7.57-6.17-11.38-.77-1.45-.63-1.62,1-1.7.56,0,1.12,0,1.68,0H242.06A6.85,6.85,0,0,1,245,146.49Z"/><path class="cls-2" d="M298.77,75.73H127.12c-.39-.71.09-1.13.35-1.6,2.07-3.6,4.17-7.19,6.2-10.81a3.17,3.17,0,0,1,3.15-1.91q76.05.09,152.1.05c1.15,0,2.12,0,2.8,1.27,2.24,4.05,4.6,8,6.9,12.06A3.74,3.74,0,0,1,298.77,75.73Z"/><path class="cls-2" d="M212.86,163.31h81.77c3.08,0,3.27-.18,1.64,2.63-1.93,3.31-3.87,6.61-5.71,10a3,3,0,0,1-3.07,1.67c-8.56-.06-17.11,0-25.66,0q-61.39,0-122.77.08a4.29,4.29,0,0,1-4.43-2.65c-1.8-3.47-3.87-6.8-5.81-10.2-.71-1.25-.59-1.44.84-1.5.64,0,1.28,0,1.92,0h81.28Z"/><path class="cls-2" d="M86.13,58.42a11.22,11.22,0,0,1,1.72-3.52c1.7-3.08,3.55-6.07,5.24-9.15a2.36,2.36,0,0,1,2.66-1.51,5.77,5.77,0,0,0,.72,0q59.86,0,119.72-.11a3.71,3.71,0,0,1,3.89,2.26c1.79,3.47,3.86,6.8,5.79,10.21.3.53.8,1,.6,1.82Z"/><path class="cls-2" d="M85.32,180.15H225.81c-2,3.52-3.73,6.56-5.48,9.58-.88,1.52-1.5,3.45-2.81,4.37s-3.57.32-5.39.32q-58,0-116.07,0c-.64,0-1.28,0-1.92,0a1.49,1.49,0,0,1-1.58-.81C90.24,189.28,87.9,185,85.32,180.15Z"/><path class="cls-2" d="M278.94,41.56h-132c-.26-.68.14-1.14.41-1.61,2.12-3.75,4.29-7.47,6.36-11.25a2.1,2.1,0,0,1,2.26-1.34,15.49,15.49,0,0,0,1.67,0q55.4,0,110.78,0c2.05,0,3.31.43,4.31,2.4,1.75,3.48,3.88,6.78,5.83,10.17A2.09,2.09,0,0,1,278.94,41.56Z"/><path class="cls-1" d="M797.83,183.88c0-1.82,0-3.34,0-4.85,0-1,.26-1.42,1.34-1.41,4.63,0,9.27,0,13.9,0,1.21,0,1.47.48,1.46,1.56q-.07,6.48,0,13c0,1.13-.3,1.55-1.48,1.55-9.26,0-18.53.08-27.8-.08-5.31-.09-8.36-3.48-8.4-8.76,0-3,0-5.92,0-8.87,0-5,3-8.21,8-8.75a13.88,13.88,0,0,1,1.44-.07h25.41c1.92,0,1.93,0,2,2,0,1,0,2.08,0,3.12s-.32,1.44-1.37,1.39c-1.27-.07-2.55,0-3.83,0H789.26c-.56,0-1.12,0-1.67,0a2.72,2.72,0,0,0-2.78,2.94q-.07,3.84,0,7.67a2.64,2.64,0,0,0,2.35,2.84,4.32,4.32,0,0,0,1,.1c5.75,0,11.5,0,17.26,0,1.46,0,1.18-.89,1.22-1.73s0-1.69-1.35-1.63C802.85,184,800.46,183.88,797.83,183.88Z"/><path class="cls-1" d="M907.77,185.18h6.36a1,1,0,0,1,1.1.69c.5,1.27,1.6,1.4,2.77,1.4h14.63a4.67,4.67,0,0,0,1.19-.1,1.79,1.79,0,0,0,1.55-1.85,1.83,1.83,0,0,0-1.65-1.78,11,11,0,0,0-1.91-.06c-4.88,0-9.76,0-14.63,0a9.53,9.53,0,0,1-5.69-1.54c-2.79-1.94-4.18-4.6-3.55-8s3-5.34,6.15-6.35a9.71,9.71,0,0,1,2.85-.39q8,0,16.07,0a8.84,8.84,0,0,1,8.14,4.57,4.86,4.86,0,0,1,.63,1.53c.47,2.5.28,2.34-1.84,2.29q-1.56,0-3.12,0c-1.19,0-2.33.16-3-1.27-.32-.7-1.23-.63-2-.62l-13.19,0a4.3,4.3,0,0,0-1.19.12,1.48,1.48,0,0,0-1.22,1.55,1.46,1.46,0,0,0,1.28,1.5A13.58,13.58,0,0,0,920,177c4.95,0,9.91,0,14.87,0a8.27,8.27,0,0,1,7,4c3.6,5.39-.31,11.29-5.46,12.43a3.38,3.38,0,0,1-.71.1c-6.79.26-13.58.25-20.37,0a7.17,7.17,0,0,1-3.78-1.38C909.11,190.47,908.05,188.64,907.77,185.18Z"/><path class="cls-1" d="M873.69,193.65c-4.79,0-9.59,0-14.39,0-1.87,0-1.89,0-1.9-1.79q0-11.4,0-22.8c0-1.87,0-1.9,1.79-1.9q14.64,0,29.28,0c1.67,0,1.68,0,1.72,1.73,0,1.12,0,2.24,0,3.36s-.32,1.42-1.38,1.39c-2.56-.06-5.12,0-7.68,0H867c-.53,0-1.35-.26-1.52.35a4.68,4.68,0,0,0,0,2.82c.18.5.85.3,1.31.3h7.68c3.6,0,7.2,0,10.8,0,1.11,0,1.63.26,1.54,1.46a20.94,20.94,0,0,0,0,3.36c.12,1.3-.43,1.6-1.64,1.59-5.12-.05-10.24,0-15.36,0h-2.64c-1.83,0-1.83,0-1.84,1.82s0,1.9,2,1.9h20.88c1.71,0,2-.39,2,2a25.15,25.15,0,0,0,0,2.88c.11,1.27-.4,1.65-1.64,1.63-4.56-.06-9.12,0-13.68,0Z"/><path class="cls-1" d="M434,183.47H420.55c-2.24,0-4.48,0-6.72,0-1,0-1.48.3-1.38,1.36a9.88,9.88,0,0,1,0,1.44c0,.74.37.95,1,.95,1.52,0,3,0,4.56,0h17.5c1.79,0,1.82,0,1.82,1.86,0,1.43.44,3.25-.26,4.19s-2.7.37-4.11.38q-13,0-25.9,0c-2.59,0-2.38.21-2.38-2.25q0-11.16,0-22.31c0-1.91,0-1.93,2-1.94h28.77c1.86,0,1.86,0,1.89,1.8,0,1,0,1.91,0,2.87,0,1.76,0,1.79-1.9,1.79H414.61c-2.28,0-2.23,0-2.17,2.22,0,.9.27,1.31,1.23,1.27,1.19-.06,2.39,0,3.59,0,5,0,10.07,0,15.11,0,1.18,0,1.77.24,1.67,1.57C433.93,180.16,434,181.68,434,183.47Z"/><path class="cls-1" d="M740.5,193.64c-3.2,0-6.4,0-9.6,0a9.68,9.68,0,0,1-4.66-.88,8,8,0,0,1-4.58-7.32c0-3.28,0-6.56,0-9.84a8.1,8.1,0,0,1,7.39-8.29,14,14,0,0,1,2.14-.16q9.36,0,18.71,0a9.81,9.81,0,0,1,5.92,1.55,7.44,7.44,0,0,1,3.48,6.22c0,3.67.1,7.36,0,11a7.86,7.86,0,0,1-7,7.54,9.59,9.59,0,0,1-1.19.12H740.5Zm.09-20c-2.64,0-5.27-.06-7.91,0-2.14.06-3,1-3.06,3.13,0,2.39,0,4.79,0,7.19,0,2.09.91,3.16,3,3.2,5.27.08,10.55.09,15.82,0,2.15,0,2.87-1,2.9-3.25s0-4.63,0-6.95c0-2.47-.83-3.29-3.32-3.33S743.07,173.61,740.59,173.62Z"/><path class="cls-1" d="M636.38,193.65c-3.2,0-6.39,0-9.59,0a9.36,9.36,0,0,1-6.09-1.78,7.18,7.18,0,0,1-3.07-5.7c0-3.76-.1-7.52,0-11.28a7.74,7.74,0,0,1,6.55-7.46,16.12,16.12,0,0,1,2.86-.28q9.35,0,18.71,0a9.64,9.64,0,0,1,6.31,1.83,7.6,7.6,0,0,1,3.13,6.17c0,3.44,0,6.88,0,10.32a7.73,7.73,0,0,1-7.31,8c-3.82.26-7.67,0-11.51,0Zm.15-20c-2.56,0-5.12,0-7.67,0s-3.32.89-3.36,3.32c0,2.15,0,4.31,0,6.47,0,2.91.78,3.72,3.66,3.77s5.75,0,8.63,0c2,0,4,0,6,0,2.61-.07,3.45-.92,3.48-3.46q0-3.24,0-6.48c0-2.77-.81-3.58-3.54-3.63C641.32,173.59,638.93,173.61,636.53,173.62Z"/><path class="cls-1" d="M592,184.19a5.59,5.59,0,0,0,.16-2.27c0-4.32,0-8.64,0-13,0-1.79,0-1.8,1.88-1.82,1.52,0,3,0,4.56,0,1,0,1.46.19,1.46,1.32q-.06,12,0,24c0,1-.45,1.23-1.31,1.21-1.75,0-3.52-.05-5.27,0a3.94,3.94,0,0,1-2.72-1.3q-9-7.34-18-14.65a4.59,4.59,0,0,0-2.05-1.22v2.44c0,4.32,0,8.64,0,13,0,1.7,0,1.72-1.72,1.75s-3.2,0-4.8,0c-1,0-1.44-.22-1.43-1.33q0-11.88,0-23.76c0-1,.24-1.55,1.33-1.43a3.84,3.84,0,0,0,.48,0c5.81-.14,5.79-.12,10.3,3.58,5.19,4.25,10.41,8.46,15.62,12.68C590.88,183.73,591.23,184.21,592,184.19Z"/><path class="cls-1" d="M491.54,183.78c.83,5.58-2,9.25-7.3,9.78a5.85,5.85,0,0,1-.72.07c-6.71,0-13.43,0-20.14,0a8.26,8.26,0,0,1-5.36-1.75,7.06,7.06,0,0,1-3.06-5.45c-.07-3.92-.18-7.84,0-11.75a7.74,7.74,0,0,1,6.76-7.28,15.29,15.29,0,0,1,2.62-.24q9.11,0,18.22,0a10,10,0,0,1,6.5,2c2.3,1.85,2.94,4.26,2.73,7-.05.56-.26.87-.88.86h-6c-.57,0-.73-.29-.91-.84-.74-2.22-1.27-2.59-3.64-2.6-4.64,0-9.28,0-13.91,0-2.89,0-3.63.81-3.65,3.75,0,2.24,0,4.48,0,6.72,0,2,.85,3,2.88,3.06,5.11.1,10.23.07,15.34,0a2.69,2.69,0,0,0,2.94-2.29c.12-.79.35-1.11,1.16-1.1C487.28,183.8,489.43,183.78,491.54,183.78Z"/><path class="cls-1" d="M545.25,180.54c0,3.83,0,7.67,0,11.5,0,1.3-.43,1.68-1.65,1.62-1.52-.07-3,0-4.56,0-1.71,0-1.73,0-1.74-1.69,0-2.4-.07-4.8,0-7.2,0-1.2-.41-1.46-1.52-1.45q-8.5.07-17,0c-1.19,0-1.52.4-1.49,1.51.06,2.48,0,5,0,7.44,0,1-.29,1.45-1.36,1.41-1.67-.06-3.36,0-5,0-1,0-1.42-.29-1.42-1.37q.06-11.86,0-23.74c0-1.25.55-1.46,1.6-1.42,1.52.05,3,.08,4.55,0,1.24-.08,1.71.33,1.67,1.6-.08,2.24,0,4.48,0,6.72,0,1,.32,1.42,1.37,1.41,5.76,0,11.51,0,17.26,0,1,0,1.43-.25,1.4-1.33-.07-2.23,0-4.47,0-6.71,0-1.19.24-1.77,1.58-1.69,1.67.1,3.35.07,5,0,1.07,0,1.37.41,1.36,1.42C545.23,172.54,545.25,176.54,545.25,180.54Z"/><path class="cls-1" d="M387.11,173.61c-3.78,0-7.29,0-10.8,0-3.09,0-2.58-.27-2.6,2.72,0,5.19,0,10.38,0,15.57,0,1.7,0,1.71-1.68,1.73s-3-.07-4.55,0c-1.3.08-1.6-.45-1.59-1.67.06-5.43,0-10.86,0-16.29,0-2.17.25-2.1-2-2.1-3.2,0-6.39,0-9.58,0-1.75,0-1.8,0-1.79-1.64s-.62-3.39.25-4.42,2.86-.38,4.35-.39c9.34,0,18.68,0,28,0,1.8,0,2-.41,2,1.9C387.1,170.47,387.11,171.9,387.11,173.61Z"/><path class="cls-1" d="M688.41,193.65c-4.63,0-9.26,0-13.89,0-1.68,0-1.71,0-1.72-1.73q0-11.5,0-23c0-1.72,0-1.74,1.68-1.76,1.44,0,2.87,0,4.31,0,1.88,0,1.89,0,1.9,2,0,5.11,0,10.22,0,15.33a13.81,13.81,0,0,1,0,1.44c-.07.9.25,1.33,1.21,1.27.79-.06,1.59,0,2.39,0H702c2.37,0,2.17-.08,2.16,2.24a25.64,25.64,0,0,0,0,2.63c.15,1.32-.47,1.61-1.65,1.59C697.83,193.62,693.12,193.65,688.41,193.65Z"/><path class="cls-1" d="M839.9,180.47c0,3.67,0,7.34,0,11,0,2.15,0,2.15-2.25,2.16-1.44,0-2.87,0-4.31,0-1,0-1.43-.3-1.4-1.37.07-1.83,0-3.67,0-5.5q0-8.86,0-17.71c0-1.91,0-1.92,2-1.94,1.44,0,2.88.06,4.31,0,1.23-.07,1.68.35,1.65,1.62C839.86,172.65,839.9,176.56,839.9,180.47Z"/></svg>